<svg width="40" height="40" viewBox="0 0 40 40" fill="none" xmlns="http://www.w3.org/2000/svg">
<path d="M26.8826 7.19995H4Z" fill="#FFBC7E"/>
<path d="M26.8826 7.19995H4" stroke="#919191" stroke-width="5" stroke-linecap="round"/>
<path d="M20.0178 18.4H4Z" fill="#FFBC7E"/>
<path d="M20.0178 18.4H4" stroke="#919191" stroke-width="5" stroke-linecap="round"/>
<path d="M15.4413 29.6H4Z" fill="#FFBC7E"/>
<path d="M15.4413 29.6H4" stroke="#919191" stroke-width="5" stroke-linecap="round"/>
<path d="M35.9999 31.8C35.9999 32.3522 35.5522 32.8 34.9999 32.8H26.6774C26.1251 32.8 25.6774 32.3522 25.6774 31.8V15.304C25.6774 14.7517 26.1251 14.304 26.6774 14.304H34.7548C35.307 14.304 35.7548 14.7517 35.7548 15.304V15.7735C35.7548 16.3258 35.307 16.7735 34.7548 16.7735H28.3745V21.8927H34.4605C35.0128 21.8927 35.4605 22.3404 35.4605 22.8927V23.3623C35.4605 23.9146 35.0128 24.3623 34.4605 24.3623H28.3745V30.3304H34.9999C35.5522 30.3304 35.9999 30.7781 35.9999 31.3304V31.8Z" fill="#FFAD0D"/>
</svg>
